<?xml version="1.0" encoding="UTF-8"?>
<!-- Generator: Adobe Illustrator 17.0.0, SVG Export Plug-In . SVG Version: 6.00 Build 0)  -->
<!DOCTYPE svg PUBLIC "-//W3C//DTD SVG 1.1//EN" "http://www.w3.org/Graphics/SVG/1.1/DTD/svg11.dtd">
<svg version="1.1" id="Layer_1" xmlns="http://www.w3.org/2000/svg" xmlns:xlink="http://www.w3.org/1999/xlink" x="0px" y="0px" width="26px" height="26px" viewBox="0 0 26 26" enable-background="new 0 0 26 26" xml:space="preserve">
<g>
	<g>
		<path fill="#F78E38" d="M13.007,24.979c-1.1,0-2.161-0.144-3.181-0.431c-1.021-0.287-1.973-0.69-2.859-1.208    c-0.885-0.518-1.69-1.14-2.416-1.866c-0.726-0.726-1.348-1.531-1.866-2.416c-0.518-0.885-0.921-1.838-1.208-2.859    c-0.287-1.021-0.431-2.081-0.431-3.181s0.144-2.161,0.431-3.181s0.69-1.973,1.208-2.859s1.14-1.69,1.866-2.416    s1.531-1.348,2.416-1.866s1.838-0.921,2.859-1.208s2.081-0.431,3.181-0.431c1.643,0,3.193,0.315,4.653,0.945    c1.459,0.63,2.727,1.483,3.803,2.56c1.076,1.076,1.93,2.344,2.56,3.803c0.63,1.459,0.945,3.01,0.945,4.653    c0,1.1-0.144,2.161-0.431,3.181c-0.287,1.021-0.69,1.973-1.208,2.859c-0.518,0.885-1.14,1.69-1.866,2.416    c-0.726,0.726-1.531,1.348-2.416,1.866c-0.885,0.518-1.838,0.921-2.859,1.208C15.168,24.836,14.108,24.979,13.007,24.979z     M18.772,8.091H7.434c-0.112,0-0.207,0.036-0.287,0.108c-0.08,0.072-0.12,0.171-0.12,0.299v1.268c0,0.064,0.024,0.096,0.072,0.096    l5.956,3.397l0.048,0.024c0.032,0,0.056-0.008,0.072-0.024l5.765-3.397c0.032-0.016,0.056-0.024,0.072-0.024    c0.016,0,0.04-0.008,0.072-0.024c0.064,0,0.096-0.032,0.096-0.096v-1.22c0-0.128-0.04-0.227-0.12-0.299    C18.98,8.127,18.884,8.091,18.772,8.091z M10.639,13.186c0.016-0.016,0.024-0.04,0.024-0.072c0-0.048-0.016-0.072-0.048-0.072    l-3.421-1.962c-0.048-0.016-0.088-0.016-0.12,0c-0.032,0-0.048,0.024-0.048,0.072v5.143c0,0.048,0.024,0.08,0.072,0.096h0.048    c0.032,0,0.048-0.008,0.048-0.024L10.639,13.186z M14.802,13.569c-0.016-0.048-0.056-0.056-0.12-0.024l-1.316,0.765    c-0.159,0.096-0.327,0.096-0.502,0l-1.148-0.646c-0.048-0.032-0.088-0.032-0.12,0l-4.378,4.067    c-0.016,0.016-0.024,0.048-0.024,0.096c0,0.016,0.016,0.04,0.048,0.072c0.096,0.032,0.159,0.048,0.191,0.048h11.219    c0.032,0,0.064-0.016,0.096-0.048c0-0.064-0.008-0.104-0.024-0.12L14.802,13.569z M19.107,10.985h-0.096l-3.253,1.938    c-0.032,0-0.048,0.024-0.048,0.072c-0.016,0.016-0.008,0.04,0.024,0.072l3.253,3.517c0.032,0.032,0.056,0.048,0.072,0.048h0.048    c0.048-0.048,0.072-0.08,0.072-0.096v-5.454C19.179,11.049,19.155,11.017,19.107,10.985z"/>
	</g>
</g>
</svg>