<?xml version="1.0" encoding="UTF-8"?>
<!-- Generator: Adobe Illustrator 13.0.0, SVG Export Plug-In . SVG Version: 6.00 Build 14948)  -->
<!DOCTYPE svg PUBLIC "-//W3C//DTD SVG 1.1//EN" "http://www.w3.org/Graphics/SVG/1.1/DTD/svg11.dtd">
<svg version="1.1" id="Layer_1" xmlns="http://www.w3.org/2000/svg" xmlns:xlink="http://www.w3.org/1999/xlink" x="0px" y="0px" width="26px" height="26px" viewBox="-0.2 -4.8 26 26" style="enable-background:new -0.2 -4.8 26 26;" xml:space="preserve">
<style type="text/css">
<![CDATA[
	.st0{fill:none;}
	.st1{fill:#DC4E41;}
]]>
</style>
<g>
	<path class="st1" d="M0.3,7.8c0.1-4,3.9-7.6,7.9-7.5c2-0.1,3.8,0.8,5.3,2c-0.6,0.7-1.3,1.4-2,2.1C9.7,3.1,7.2,2.7,5.4,4.2   c-2.6,1.8-2.7,6-0.2,7.9c2.4,2.2,7,1.1,7.6-2.3c-1.5,0-3,0-4.5,0c0-0.9,0-1.8,0-2.7c2.5,0,5.1,0,7.6,0c0.2,2.1-0.1,4.4-1.4,6.1   c-2,2.8-5.9,3.6-9,2.4C2.3,14.5,0.1,11.2,0.3,7.8L0.3,7.8z"/>
	<path class="st1" d="M20.8,4.8c0.8,0,1.5,0,2.3,0c0,0.8,0,1.5,0,2.3c0.8,0,1.5,0,2.3,0c0,0.8,0,1.5,0,2.3c-0.8,0-1.5,0-2.3,0   c0,0.8,0,1.5,0,2.3c-0.8,0-1.5,0-2.3,0c0-0.8,0-1.5,0-2.3c-0.8,0-1.5,0-2.3,0c0-0.8,0-1.5,0-2.3c0.8,0,1.5,0,2.3,0   C20.7,6.3,20.8,5.6,20.8,4.8L20.8,4.8z"/>
</g>
<rect x="-0.2" y="-4.8" class="st0" width="26" height="26"/>
</svg>